<svg width="89" height="44" viewBox="0 0 89 44" fill="none" xmlns="http://www.w3.org/2000/svg">
<g filter="url(#filter0_d_75_2379)">
<path d="M79.936 17.24H84.136V24.2C83.176 24.888 82.072 25.416 80.824 25.784C79.576 26.152 78.328 26.336 77.08 26.336C75.32 26.336 73.736 25.968 72.328 25.232C70.92 24.48 69.816 23.44 69.016 22.112C68.216 20.784 67.816 19.28 67.816 17.6C67.816 15.92 68.216 14.416 69.016 13.088C69.816 11.76 70.928 10.728 72.352 9.992C73.776 9.24 75.384 8.864 77.176 8.864C78.744 8.864 80.152 9.128 81.4 9.656C82.648 10.184 83.688 10.944 84.52 11.936L81.496 14.672C80.36 13.424 79 12.8 77.416 12.8C75.976 12.8 74.816 13.24 73.936 14.12C73.056 14.984 72.616 16.144 72.616 17.6C72.616 18.528 72.816 19.36 73.216 20.096C73.616 20.816 74.176 21.384 74.896 21.8C75.616 22.2 76.44 22.4 77.368 22.4C78.28 22.4 79.136 22.216 79.936 21.848V17.24Z" fill="#333333"/>
<path fill-rule="evenodd" clip-rule="evenodd" d="M61 18C61 20.8737 60.4014 23.5901 59.3369 26H46C48.4627 22.2281 51 17.6606 51 13C51 7.00236 46.9385 1.95335 41.4158 0.453392C42.5681 0.156712 43.7678 0 45 0C53.8366 0 61 8.05888 61 18ZM47 13C47 8.02944 42.9706 4 38 4C31.3493 4 29 12.5071 29 18C29 27.9411 36.1634 36 45 36C49.7387 36 53.9962 33.6825 56.9259 30H38C38.3518 29.5514 38.7202 29.0891 39.0987 28.6142C42.6157 24.2012 47 18.6997 47 13Z" fill="#7859CF"/>
<path d="M4.85188 9.2H12.7959C14.6359 9.2 16.2679 9.544 17.6919 10.232C19.1159 10.92 20.2199 11.896 21.0039 13.16C21.7879 14.424 22.1799 15.904 22.1799 17.6C22.1799 19.296 21.7879 20.776 21.0039 22.04C20.2199 23.304 19.1159 24.28 17.6919 24.968C16.2679 25.656 14.6359 26 12.7959 26H4.85188V9.2ZM12.6039 22.208C14.0439 22.208 15.1959 21.8 16.0599 20.984C16.9399 20.168 17.3799 19.04 17.3799 17.6C17.3799 16.16 16.9399 15.032 16.0599 14.216C15.1959 13.4 14.0439 12.992 12.6039 12.992H9.60388V22.208H12.6039Z" fill="#333333"/>
</g>
<defs>
<filter id="filter0_d_75_2379" x="-1" y="0" width="90" height="44" filterUnits="userSpaceOnUse" color-interpolation-filters="sRGB">
<feFlood flood-opacity="0" result="BackgroundImageFix"/>
<feColorMatrix in="SourceAlpha" type="matrix" values="0 0 0 0 0 0 0 0 0 0 0 0 0 0 0 0 0 0 127 0" result="hardAlpha"/>
<feOffset dy="4"/>
<feGaussianBlur stdDeviation="2"/>
<feComposite in2="hardAlpha" operator="out"/>
<feColorMatrix type="matrix" values="0 0 0 0 0 0 0 0 0 0 0 0 0 0 0 0 0 0 0.25 0"/>
<feBlend mode="normal" in2="BackgroundImageFix" result="effect1_dropShadow_75_2379"/>
<feBlend mode="normal" in="SourceGraphic" in2="effect1_dropShadow_75_2379" result="shape"/>
</filter>
</defs>
</svg>
