<svg width="170" height="36" viewBox="0 0 170 36" fill="none" xmlns="http://www.w3.org/2000/svg">
<path d="M142.936 17.24H147.136V24.2C146.176 24.888 145.072 25.416 143.824 25.784C142.576 26.152 141.328 26.336 140.08 26.336C138.32 26.336 136.736 25.968 135.328 25.232C133.92 24.48 132.816 23.44 132.016 22.112C131.216 20.784 130.816 19.28 130.816 17.6C130.816 15.92 131.216 14.416 132.016 13.088C132.816 11.76 133.928 10.728 135.352 9.992C136.776 9.24 138.384 8.864 140.176 8.864C141.744 8.864 143.152 9.128 144.4 9.656C145.648 10.184 146.688 10.944 147.52 11.936L144.496 14.672C143.36 13.424 142 12.8 140.416 12.8C138.976 12.8 137.816 13.24 136.936 14.12C136.056 14.984 135.616 16.144 135.616 17.6C135.616 18.528 135.816 19.36 136.216 20.096C136.616 20.816 137.176 21.384 137.896 21.8C138.616 22.2 139.44 22.4 140.368 22.4C141.28 22.4 142.136 22.216 142.936 21.848V17.24ZM159.101 26.336C157.325 26.336 155.725 25.96 154.301 25.208C152.893 24.456 151.781 23.416 150.965 22.088C150.165 20.76 149.765 19.264 149.765 17.6C149.765 15.936 150.165 14.44 150.965 13.112C151.781 11.784 152.893 10.744 154.301 9.992C155.725 9.24 157.325 8.864 159.101 8.864C160.877 8.864 162.469 9.24 163.877 9.992C165.301 10.744 166.413 11.784 167.213 13.112C168.029 14.44 168.437 15.936 168.437 17.6C168.437 19.264 168.029 20.76 167.213 22.088C166.413 23.416 165.301 24.456 163.877 25.208C162.469 25.96 160.877 26.336 159.101 26.336ZM159.101 22.4C159.949 22.4 160.717 22.2 161.405 21.8C162.093 21.4 162.637 20.84 163.037 20.12C163.437 19.384 163.637 18.544 163.637 17.6C163.637 16.656 163.437 15.824 163.037 15.104C162.637 14.368 162.093 13.8 161.405 13.4C160.717 13 159.949 12.8 159.101 12.8C158.253 12.8 157.485 13 156.797 13.4C156.109 13.8 155.565 14.368 155.165 15.104C154.765 15.824 154.565 16.656 154.565 17.6C154.565 18.544 154.765 19.384 155.165 20.12C155.565 20.84 156.109 21.4 156.797 21.8C157.485 22.2 158.253 22.4 159.101 22.4Z" fill="#333333"/>
<path fill-rule="evenodd" clip-rule="evenodd" d="M124 18C124 20.8737 123.401 23.5901 122.337 26H109C111.463 22.2281 114 17.6606 114 13C114 7.00236 109.938 1.95335 104.416 0.453392C105.568 0.156712 106.768 0 108 0C116.837 0 124 8.05888 124 18ZM110 13C110 8.02944 105.971 4 101 4C94.3493 4 92 12.5071 92 18C92 27.9411 99.1634 36 108 36C112.739 36 116.996 33.6825 119.926 30H101C101.352 29.5514 101.72 29.0891 102.099 28.6142C105.616 24.2012 110 18.6997 110 13Z" fill="#7859CF"/>
<path d="M2.65063 26V9.2H10.5946C12.4506 9.2 14.0826 9.544 15.4906 10.232C16.8986 10.92 17.9946 11.888 18.7786 13.136C19.5786 14.384 19.9786 15.872 19.9786 17.6C19.9786 19.312 19.5786 20.8 18.7786 22.064C17.9946 23.312 16.8986 24.28 15.4906 24.968C14.0826 25.656 12.4506 26 10.5946 26H2.65063ZM7.40263 22.208H10.4026C11.3626 22.208 12.1946 22.032 12.8986 21.68C13.6186 21.312 14.1786 20.784 14.5786 20.096C14.9786 19.392 15.1786 18.56 15.1786 17.6C15.1786 16.624 14.9786 15.792 14.5786 15.104C14.1786 14.416 13.6186 13.896 12.8986 13.544C12.1946 13.176 11.3626 12.992 10.4026 12.992H7.40263V22.208ZM22.9588 26V9.2H30.6388C32.1748 9.2 33.4948 9.448 34.5988 9.944C35.7188 10.44 36.5828 11.16 37.1908 12.104C37.7988 13.032 38.1028 14.136 38.1028 15.416C38.1028 16.68 37.7988 17.776 37.1908 18.704C36.5828 19.616 35.7188 20.32 34.5988 20.816C33.4948 21.296 32.1748 21.536 30.6388 21.536H25.5988L27.7108 19.544V26H22.9588ZM33.3508 26L29.1748 19.88H34.2388L38.4388 26H33.3508ZM27.7108 20.048L25.5988 17.864H30.3508C31.3428 17.864 32.0788 17.648 32.5588 17.216C33.0548 16.784 33.3028 16.184 33.3028 15.416C33.3028 14.632 33.0548 14.024 32.5588 13.592C32.0788 13.16 31.3428 12.944 30.3508 12.944H25.5988L27.7108 10.76V20.048ZM41.2044 26V9.2H45.9564V26H41.2044ZM49.8172 26V9.2H53.7292L62.9932 20.384H61.1452V9.2H65.8012V26H61.8892L52.6252 14.816H54.4732V26H49.8172ZM73.8811 22.28L73.6171 16.952L80.8411 9.2H86.0731L78.8731 17L76.2331 19.76L73.8811 22.28ZM69.6331 26V9.2H74.3371V26H69.6331ZM80.9131 26L75.4411 19.064L78.5371 15.752L86.4331 26H80.9131Z" fill="#333333"/>
</svg>
