<svg viewBox="0 0 20 16" fill="none" xmlns="http://www.w3.org/2000/svg"><path fill-rule="evenodd" clip-rule="evenodd" d="M13.67 13.52v-.02h1.35l-.03.21a2.67 2.67 0 0 1-2.64 2.29h-8.7a2.67 2.67 0 0 1-2.64-2.29l-.82-5.71-.19-1.33h4.55l-.22-2.68a3.68 3.68 0 0 1 7.29-.99h-1.37a2.35 2.35 0 0 0-4.59.88l.23 2.79h3.61v1.33h-3.44l.22 2.67h3.44l.01-.17h1.34l-.01.17h1.44v1.33h-1.55l-.23 2.67h1.63c.67 0 1.23-.5 1.32-1.15Zm-8.95-5.52h-3.18l.38 2.67h3.02l-.22-2.67Zm1.9 6.67-.23-2.67h3.22l-.22 2.67h-2.78Zm-1.57-2.67.23 2.67h-1.63c-.67 0-1.23-.5-1.32-1.15l-.22-1.52h2.94Zm10.75-2v-2.8h-2.8v-1.4h2.8v-2.8h1.4v2.8h2.8v1.4h-2.8v2.8h-1.4Z" fill="#fff"/></svg>