<?xml version="1.0" standalone="no"?>
<!DOCTYPE svg PUBLIC "-//W3C//DTD SVG 20010904//EN"
 "http://www.w3.org/TR/2001/REC-SVG-20010904/DTD/svg10.dtd">
<svg version="1.0" xmlns="http://www.w3.org/2000/svg"
 width="576.000000pt" height="576.000000pt" viewBox="0 0 576.000000 576.000000"
 preserveAspectRatio="xMidYMid meet">
<metadata>
Created by potrace 1.14, written by Peter Selinger 2001-2017
</metadata>
<g transform="translate(0.000000,576.000000) scale(0.100000,-0.100000)"
fill="#000000" stroke="none">
<path d="M2615 5745 c-116 -16 -162 -24 -205 -34 -19 -5 -48 -12 -65 -16 l-30
-7 25 -10 c14 -5 32 -11 40 -13 36 -8 151 -51 220 -82 246 -113 444 -248 624
-428 91 -91 206 -226 235 -277 9 -16 19 -28 24 -28 4 0 7 -7 7 -15 0 -8 3 -15
8 -15 4 0 19 -21 32 -47 14 -27 28 -50 31 -53 25 -19 176 -369 195 -450 0 -3
3 -12 7 -20 5 -15 14 -55 21 -97 2 -11 7 -29 10 -40 3 -10 8 -31 11 -48 2 -16
7 -40 9 -52 9 -46 19 -172 20 -255 1 -49 5 -88 9 -88 5 0 6 -4 2 -9 -3 -6 -7
-49 -10 -98 -2 -48 -7 -106 -10 -128 -3 -22 -7 -53 -9 -70 -13 -97 -74 -372
-93 -415 -3 -8 -7 -19 -9 -25 -10 -39 -82 -233 -120 -322 -85 -200 -288 -595
-317 -614 -5 -3 -9 -10 -9 -15 0 -9 -48 -95 -58 -104 -3 -3 -11 -15 -18 -27
-27 -49 -37 -67 -45 -77 -9 -12 -38 -57 -74 -115 -12 -20 -22 -39 -23 -43 0
-8 76 -10 233 -8 37 1 71 -1 75 -4 4 -3 14 -1 20 3 7 4 33 5 57 1 25 -4 47 -5
49 -2 7 6 116 8 116 2 0 -3 27 -5 60 -5 33 0 60 2 60 5 0 3 54 3 121 0 66 -3
122 -3 124 -1 6 5 115 7 115 1 0 -3 28 -4 62 -2 35 1 68 3 73 3 6 0 28 0 50 0
22 -1 47 -1 55 0 18 0 216 0 309 -1 36 -1 68 -3 73 -6 4 -3 8 -2 8 3 0 6 81 7
255 2 6 -1 28 0 50 1 22 1 45 1 50 0 6 -1 31 -2 58 -1 46 1 48 2 66 44 45 99
55 123 57 132 1 6 18 57 37 115 54 162 105 377 122 515 3 22 7 54 9 70 22 146
28 538 12 700 -13 139 -28 242 -42 309 -3 11 -7 32 -10 46 -25 131 -99 379
-152 515 -57 146 -179 391 -233 467 -11 14 -19 30 -19 35 0 6 -9 18 -20 28
-11 10 -20 22 -20 27 0 7 -123 179 -155 215 -5 6 -28 33 -50 60 -72 86 -271
278 -361 349 -49 38 -95 74 -102 81 -7 7 -17 13 -22 13 -5 0 -15 6 -22 13 -16
16 -107 77 -114 77 -3 0 -18 9 -34 20 -89 63 -436 213 -567 245 -10 3 -45 11
-78 19 -87 22 -130 30 -205 40 -25 3 -61 9 -80 12 -70 12 -436 11 -525 -1z"/>
<path d="M1628 5115 c-2 -2 -19 -6 -38 -9 -83 -12 -105 -17 -178 -41 -72 -24
-194 -79 -217 -97 -5 -5 -39 -27 -74 -51 -74 -48 -215 -184 -282 -272 -179
-233 -320 -543 -408 -894 -17 -65 -32 -131 -35 -147 -2 -16 -5 -29 -6 -29 -1
0 -3 -9 -5 -20 -8 -54 -16 -102 -20 -120 -2 -11 -7 -42 -10 -70 -4 -27 -8 -61
-10 -74 -21 -125 -28 -552 -12 -706 15 -142 29 -244 43 -309 3 -11 7 -32 10
-46 61 -315 210 -699 370 -957 8 -13 15 -26 16 -30 1 -5 6 -12 10 -18 5 -5 36
-50 70 -100 295 -433 712 -776 1163 -955 96 -38 245 -90 245 -85 0 2 15 -2 34
-10 18 -8 36 -12 38 -9 3 2 16 0 30 -5 14 -5 40 -12 59 -15 19 -3 45 -8 59
-11 14 -3 43 -7 65 -10 22 -3 56 -8 75 -11 59 -10 421 -12 485 -3 33 4 76 10
95 12 72 9 167 28 220 42 30 9 64 17 75 19 11 2 43 11 70 21 28 10 55 18 60
19 45 7 366 152 373 169 2 4 8 7 14 7 10 0 128 68 138 79 3 4 32 24 65 45 62
40 157 113 228 175 99 86 324 323 335 352 4 10 -2 10 -133 9 -89 0 -263 0
-274 2 -3 0 -8 0 -11 -1 -13 -5 -120 -5 -120 -1 0 3 -28 4 -62 2 -35 -1 -67
-3 -73 -3 -5 0 -28 0 -50 0 -22 1 -47 1 -55 0 -18 0 -216 0 -309 1 -36 1 -68
3 -73 6 -4 3 -8 2 -8 -3 0 -4 -55 -7 -122 -5 -68 2 -139 3 -158 2 -19 -1 -42
-2 -50 -1 -8 0 -40 0 -70 0 -30 -1 -62 -1 -70 0 -8 1 -33 1 -55 0 -22 -1 -46
-1 -52 -1 -7 1 -64 1 -125 1 -185 0 -241 2 -250 7 -4 3 -8 2 -8 -3 0 -4 -48
-6 -106 -3 -58 3 -107 3 -109 1 -6 -5 -115 -7 -115 -1 0 3 -28 4 -62 2 -35 -1
-67 -3 -73 -3 -5 0 -28 0 -50 0 -22 1 -49 1 -60 1 -11 -1 -68 -1 -128 0 -59 0
-111 -1 -115 -1 -4 -1 -22 -1 -41 0 l-33 1 28 33 c16 18 40 48 54 67 14 19 33
42 43 52 9 10 17 22 17 27 0 5 3 11 8 13 4 2 32 35 62 73 30 39 57 72 60 75 3
3 17 21 30 40 13 19 30 40 36 45 12 11 88 109 182 235 31 41 58 77 62 80 6 5
93 125 159 220 58 83 221 330 221 335 0 3 15 28 34 57 56 89 172 311 225 433
13 28 28 64 36 80 54 124 132 383 151 501 3 21 7 41 9 44 9 14 19 181 19 305
0 208 -18 325 -80 495 -28 80 -111 248 -131 268 -7 7 -13 18 -13 23 0 5 -6 17
-14 26 -8 10 -42 52 -75 94 -186 235 -505 441 -766 494 -22 5 -42 9 -45 10 -3
1 -23 5 -45 10 -22 4 -49 10 -60 12 -25 6 -332 13 -337 8z"/>
</g>
</svg>
